<svg width="20" height="20" viewBox="0 0 21 21" fill="none" xmlns="http://www.w3.org/2000/svg" class="css-0"><rect x="4.876" y="1.193" width="14.432" height="14.432" rx="2" transform="rotate(8.526 4.876 1.193)" fill="#5682A4"></rect><mask id="a" maskUnits="userSpaceOnUse" x="3" y="1" width="16" height="17" style="mask-type: alpha;"><rect x="4.88" y="1.085" width="14.432" height="14.432" rx="2" transform="rotate(8.526 4.88 1.085)" fill="#467296"></rect></mask><g filter="url(#filter0_d_1318_35174)" mask="url(#a)"><rect x="2.779" y="2.442" width="14.432" height="14.432" rx="2" fill="url(#paint0_linear_1318_35174)"></rect></g><rect x="2.776" y="2.442" width="14.432" height="14.432" rx="2" fill="url(#paint1_linear_1318_35174)"></rect><mask id="b" maskUnits="userSpaceOnUse" x="2" y="2" width="16" height="15" style="mask-type: alpha;"><rect x="2.777" y="2.442" width="14.432" height="14.432" rx="2" fill="url(#paint2_linear_1318_35174)"></rect></mask><g mask="url(#b)"><path fill-rule="evenodd" clip-rule="evenodd" d="M7.32 6.897a1 1 0 00-1.56 0l-8.898 11.081a1 1 0 00.78 1.626H4.71c.5 0 .778.58.465.97a1 1 0 00.78 1.626h17.798a1 1 0 00.78-1.627l-8.9-11.081a1 1 0 00-1.559 0l-1.555 1.936a1 1 0 01-1.56 0L7.32 6.897z" fill="#5A85A7"></path></g><circle cx="12.523" cy="5.977" r="1.588" fill="#ECCF86"></circle><mask id="c" maskUnits="userSpaceOnUse" x="2" y="2" width="16" height="15" style="mask-type: alpha;"><rect x="2.78" y="2.442" width="14.432" height="14.432" rx="2" fill="url(#paint3_linear_1318_35174)"></rect></mask><g filter="url(#filter1_d_1318_35174)" mask="url(#c)"><path fill-rule="evenodd" clip-rule="evenodd" d="M6.318 20.446a3.878 3.878 0 01-1.322-7.628 5.382 5.382 0 019.736-.053 3.88 3.88 0 01-1.064 7.68h-3.306a5.451 5.451 0 01-.971 0H6.318z" fill="url(#paint4_radial_1318_35174)"></path></g><path fill-rule="evenodd" clip-rule="evenodd" d="M6.515 20.77a4.126 4.126 0 01-1.4-8.115 5.725 5.725 0 0110.357-.056 4.127 4.127 0 01-1.129 8.17h-3.52a5.782 5.782 0 01-1.032 0H6.515z" fill="url(#paint5_radial_1318_35174)"></path><g filter="url(#filter2_i_1318_35174)"><path fill-rule="evenodd" clip-rule="evenodd" d="M9.946 11.469a.664.664 0 01.973 0l2.203 2.372a.664.664 0 01-.486 1.116h-.81v4.36H9.033v-4.36H8.23a.664.664 0 01-.486-1.116l2.202-2.372z" fill="url(#paint6_linear_1318_35174)"></path></g><defs><linearGradient id="paint0_linear_1318_35174" x1="9.995" y1="2.442" x2="9.995" y2="16.874" gradientUnits="userSpaceOnUse"><stop stop-color="#C9E9FF"></stop><stop offset=".029" stop-color="#BAE2FF"></stop><stop offset=".063" stop-color="#A9CEE9"></stop><stop offset=".31" stop-color="#97BCD8"></stop><stop offset="1" stop-color="#6E8DA6"></stop></linearGradient><linearGradient id="paint1_linear_1318_35174" x1="9.992" y1="2.442" x2="9.992" y2="16.873" gradientUnits="userSpaceOnUse"><stop stop-color="#C9E9FF"></stop><stop offset=".029" stop-color="#BAE2FF"></stop><stop offset=".063" stop-color="#A9CEE9"></stop><stop offset=".31" stop-color="#97BCD8"></stop><stop offset="1" stop-color="#6E8DA6"></stop></linearGradient><linearGradient id="paint2_linear_1318_35174" x1="9.993" y1="2.442" x2="9.993" y2="16.874" gradientUnits="userSpaceOnUse"><stop stop-color="#fff"></stop><stop offset=".047" stop-color="#A9CEE8"></stop><stop offset="1" stop-color="#638EB1"></stop></linearGradient><linearGradient id="paint3_linear_1318_35174" x1="9.996" y1="2.442" x2="9.996" y2="16.874" gradientUnits="userSpaceOnUse"><stop stop-color="#C9E9FF"></stop><stop offset=".029" stop-color="#BAE2FF"></stop><stop offset=".063" stop-color="#9FCBEC"></stop><stop offset=".31" stop-color="#88B8DC"></stop><stop offset="1" stop-color="#448AC4"></stop></linearGradient><linearGradient id="paint6_linear_1318_35174" x1="10.433" y1="11.257" x2="10.433" y2="19.316" gradientUnits="userSpaceOnUse"><stop stop-color="#6C98BB"></stop><stop offset="1" stop-color="#3B6687"></stop></linearGradient><filter id="filter0_d_1318_35174" x="1.979" y="1.642" width="16.432" height="16.432" filterUnits="userSpaceOnUse" color-interpolation-filters="sRGB"><feFlood flood-opacity="0" result="BackgroundImageFix"></feFlood><feColorMatrix in="SourceAlpha" values="0 0 0 0 0 0 0 0 0 0 0 0 0 0 0 0 0 0 127 0" result="hardAlpha"></feColorMatrix><feOffset dx=".2" dy=".2"></feOffset><feGaussianBlur stdDeviation=".5"></feGaussianBlur><feComposite in2="hardAlpha" operator="out"></feComposite><feColorMatrix values="0 0 0 0 0 0 0 0 0 0 0 0 0 0 0 0 0 0 0.8 0"></feColorMatrix><feBlend in2="BackgroundImageFix" result="effect1_dropShadow_1318_35174"></feBlend><feBlend in="SourceGraphic" in2="effect1_dropShadow_1318_35174" result="shape"></feBlend></filter><filter id="filter1_d_1318_35174" x="-1.476" y="5.506" width="23.938" height="18.762" filterUnits="userSpaceOnUse" color-interpolation-filters="sRGB"><feFlood flood-opacity="0" result="BackgroundImageFix"></feFlood><feColorMatrix in="SourceAlpha" values="0 0 0 0 0 0 0 0 0 0 0 0 0 0 0 0 0 0 127 0" result="hardAlpha"></feColorMatrix><feOffset dx=".5" dy="-.2"></feOffset><feGaussianBlur stdDeviation="2"></feGaussianBlur><feComposite in2="hardAlpha" operator="out"></feComposite><feColorMatrix values="0 0 0 0 0.0789931 0 0 0 0 0.252531 0 0 0 0 0.379167 0 0 0 1 0"></feColorMatrix><feBlend in2="BackgroundImageFix" result="effect1_dropShadow_1318_35174"></feBlend><feBlend in="SourceGraphic" in2="effect1_dropShadow_1318_35174" result="shape"></feBlend></filter><filter id="filter2_i_1318_35174" x="7.565" y="11.257" width="5.736" height="8.282" filterUnits="userSpaceOnUse" color-interpolation-filters="sRGB"><feFlood flood-opacity="0" result="BackgroundImageFix"></feFlood><feBlend in="SourceGraphic" in2="BackgroundImageFix" result="shape"></feBlend><feColorMatrix in="SourceAlpha" values="0 0 0 0 0 0 0 0 0 0 0 0 0 0 0 0 0 0 127 0" result="hardAlpha"></feColorMatrix><feOffset dy=".222"></feOffset><feGaussianBlur stdDeviation=".111"></feGaussianBlur><feComposite in2="hardAlpha" operator="arithmetic" k2="-1" k3="1"></feComposite><feColorMatrix values="0 0 0 0 0.243733 0 0 0 0 0.344613 0 0 0 0 0.420833 0 0 0 1 0"></feColorMatrix><feBlend in2="shape" result="effect1_innerShadow_1318_35174"></feBlend></filter><radialGradient id="paint4_radial_1318_35174" cx="0" cy="0" r="1" gradientUnits="userSpaceOnUse" gradientTransform="matrix(0 10.8877 -10.8863 0 9.994 10.067)"><stop offset=".318" stop-color="#EFEBE9"></stop><stop offset=".673" stop-color="#E7E7E7"></stop><stop offset=".778" stop-color="#DBDBDB"></stop><stop offset=".994" stop-color="#8F98AA"></stop></radialGradient><radialGradient id="paint5_radial_1318_35174" cx="0" cy="0" r="1" gradientUnits="userSpaceOnUse" gradientTransform="matrix(0 11.5818 -11.5813 0 10.43 9.73)"><stop offset=".318" stop-color="#EFEBE9"></stop><stop offset=".673" stop-color="#E7E7E7"></stop><stop offset=".778" stop-color="#DBDBDB"></stop><stop offset=".994" stop-color="#B6B9C0"></stop></radialGradient></defs></svg>