<svg width="20" height="20" viewBox="0 0 21 21" fill="none" xmlns="http://www.w3.org/2000/svg" class="css-0"><path d="M1.644 4.832a3 3 0 013-3h12a3 3 0 013 3v12a3 3 0 01-3 3h-12a3 3 0 01-3-3v-12z" fill="url(#paint0_linear_1332_26254)"></path><path d="M13.844 1.826v7.048a1 1 0 01-1.524.852l-1.152-.709a1 1 0 00-1.048 0l-1.151.709a1 1 0 01-1.524-.852V1.826h6.4z" fill="url(#paint1_linear_1332_26254)"></path><path d="M5.237 16.15l2.986-.027" stroke="#7B5D42" stroke-width="1.5" stroke-linecap="round"></path><defs><linearGradient id="paint0_linear_1332_26254" x1="10.644" y1="1.832" x2="10.644" y2="19.831" gradientUnits="userSpaceOnUse"><stop stop-color="#D1AF8F"></stop><stop offset="1" stop-color="#A48466"></stop></linearGradient><linearGradient id="paint1_linear_1332_26254" x1="10.648" y1="1.04" x2="10.648" y2="9.608" gradientUnits="userSpaceOnUse"><stop stop-color="#855957"></stop><stop offset=".354" stop-color="#5B3836"></stop></linearGradient></defs></svg>