<svg width="100" height="84" viewBox="0 0 100 84" fill="none" xmlns="http://www.w3.org/2000/svg">
<g clip-path="url(#clip0_207_27006)">
<path opacity="0.7" d="M61.1607 48.7629C51.4632 61.7941 52.9784 76.3401 57.2212 85.1284H-1.26703C-4.29749 78.8655 -11.2621 59.9775 -4.2975 40.2775C6.30915 10.2758 47.5235 6.03317 61.1607 14.2154C74.7978 22.3977 70.8582 35.7318 61.1607 48.7629Z" fill="white"/>
<path opacity="0.7" d="M75.6068 24.458C78.5237 15.1772 75.0764 7.75248 65 -0.998047H85.6938C95.5929 24.458 72.6899 33.7388 75.6068 24.458Z" fill="white"/>
<path d="M73.9349 60.3704L44.2549 70.962L16.1755 58.5229L14.082 20.345L49.0577 10L77.999 23.6705L73.9349 60.3704Z" fill="#E9B66A"/>
<path d="M45.5286 35.4177L44.2614 70.8987L16.1244 58.5629L14 20.2568L45.5286 35.4177Z" fill="#8D7248"/>
<path d="M77.9842 23.7012L45.5523 35.3973L44.3105 70.8362L73.9164 60.3797L77.9842 23.7012Z" fill="#D19E51"/>
<path opacity="0.5" d="M48.1653 57.977L47.7773 65.9253C47.7773 65.9253 51.3682 64.7796 53.5351 64.0965C55.8591 63.3639 58.8752 62.1743 58.8752 62.1743L59.6099 54.4406C59.6099 54.4406 56.2237 55.4247 53.9722 56.1664C51.7206 56.9081 48.1653 57.977 48.1653 57.977Z" fill="white"/>
<path opacity="0.5" d="M24.8887 41.5796V25.6727C29.6371 23.5836 48.8683 16.9674 57.8904 13.9204C57.8904 13.9204 63.3511 15.9381 66.7937 18.1936C53.3794 22.7047 33.3172 29.7086 33.3172 29.7086L32.3675 45.0223C31.2279 44.6424 26.9068 42.5689 24.8887 41.5796Z" fill="white"/>
<circle cx="52.3127" cy="61.3127" r="14.3127" fill="white"/>
<circle cx="52.3114" cy="61.3129" r="11.5458" fill="#C87D7C"/>
<path d="M47.543 56.542L57.0848 66.0838M47.543 66.0838L57.0848 56.542" stroke="white" stroke-width="2.5" stroke-linecap="round" stroke-linejoin="round"/>
</g>
<defs>
<clipPath id="clip0_207_27006">
<rect width="100" height="84" fill="white"/>
</clipPath>
</defs>
</svg>
