<svg width="20" height="20" viewBox="0 0 21 21" fill="none" xmlns="http://www.w3.org/2000/svg" class="css-0"><path d="M1.934 5.579c0-.896.726-1.622 1.621-1.622h12.437c1.194 0 2.161.968 2.161 2.162v8.34a2.162 2.162 0 01-2.161 2.162H4.096a2.162 2.162 0 01-2.162-2.162v-8.88z" fill="#A97B6A"></path><rect x="2.16" y="12.494" width="9.999" height="12.05" rx="1.081" transform="rotate(-75 2.16 12.494)" fill="#658958"></rect><circle cx="13.799" cy="8.359" r="3.733" fill="#E9C86F"></circle><path fill="url(#paint0_linear_1332_26204)" fill-opacity=".6" d="M3.152 5.047h12.749v3.312H3.152z"></path><path fill-rule="evenodd" clip-rule="evenodd" d="M3.892 6.282c-.871-.01-1.958-.109-1.958-.73v11.222c0 1.194.968 2.162 2.162 2.162h12.97a2.162 2.162 0 002.162-2.162v-8.34a2.162 2.162 0 00-2.162-2.161H4.097c-.069 0-.137.003-.204.01z" fill="url(#paint1_linear_1332_26204)"></path><path d="M11.267 12.428a2.733 2.733 0 012.732-2.733h4.852a.91.91 0 01.91.91v3.777a.91.91 0 01-.91.91H14a2.733 2.733 0 01-2.733-2.732v-.132z" fill="url(#paint2_linear_1332_26204)"></path><circle cx="13.799" cy="12.494" r="1.265" fill="url(#paint3_linear_1332_26204)"></circle><defs><linearGradient id="paint0_linear_1332_26204" x1="9.527" y1="3.872" x2="9.527" y2="8.359" gradientUnits="userSpaceOnUse"><stop offset=".401" stop-opacity="0"></stop><stop offset=".877"></stop></linearGradient><linearGradient id="paint1_linear_1332_26204" x1="10.581" y1="5.552" x2="10.581" y2="18.936" gradientUnits="userSpaceOnUse"><stop stop-color="#B39285"></stop><stop offset=".75" stop-color="#A57C6C"></stop></linearGradient><linearGradient id="paint2_linear_1332_26204" x1="15.514" y1="9.695" x2="15.514" y2="15.293" gradientUnits="userSpaceOnUse"><stop stop-color="#7F5E5E"></stop><stop offset="1" stop-color="#704F4F"></stop></linearGradient><linearGradient id="paint3_linear_1332_26204" x1="13.799" y1="11.229" x2="13.799" y2="13.759" gradientUnits="userSpaceOnUse"><stop stop-color="#E1D88F"></stop><stop offset="1" stop-color="#C8BE74"></stop></linearGradient></defs></svg>