<svg width="20" height="20" viewBox="0 0 21 21" fill="none" xmlns="http://www.w3.org/2000/svg" class="css-0"><path d="M6.166 6.495a2 2 0 01.785-1.12l4.135-2.895a2 2 0 013.038.986l1.474 4.278a2 2 0 01.041 1.17l-2.422 9.04a2 2 0 01-2.45 1.414l-5.579-1.495a2 2 0 01-1.414-2.45l2.392-8.928z" fill="url(#paint0_linear_1332_26271)"></path><path d="M7.174 7.505a2 2 0 01.563-1.39l3.339-3.454a2 2 0 012.875 0l3.34 3.453a2 2 0 01.562 1.39v10.019a2 2 0 01-2 2H9.174a2 2 0 01-2-2V7.505z" fill="url(#paint1_linear_1332_26271)"></path><circle cx="12.514" cy="4.303" r=".691" fill="#B57340"></circle><g filter="url(#filter0_i_1332_26271)"><path fill-rule="evenodd" clip-rule="evenodd" d="M9.974 9.939a.452.452 0 01.457-.448l4.175.045a.452.452 0 01-.01.905l-1.093-.012c-.108 0-.173.123-.12.217.106.188.184.392.234.602.014.06.067.105.13.106l.84.01a.452.452 0 11-.01.904l-.842-.01a.137.137 0 00-.132.103A2.24 2.24 0 0113 13.375c-.244.239-.522.44-.87.561-.11.039-.14.193-.044.259l1.666 1.152a.452.452 0 11-.515.744l-3.067-2.122a.452.452 0 01.262-.824l.903.01c.476.005.756-.157 1.032-.427.097-.095.177-.199.24-.31.045-.08-.017-.172-.108-.173l-1.681-.018a.452.452 0 11.01-.905l1.693.019c.09 0 .154-.087.115-.168a1.322 1.322 0 00-.248-.36c-.233-.238-.678-.403-1.065-.407l-.903-.01a.452.452 0 01-.447-.457z" fill="#0E2A43"></path></g><path d="M12.84 4.303c1.039 0 2.214-.688 2.214-2.45" stroke="#B57340" stroke-width=".8" stroke-linecap="round"></path><defs><linearGradient id="paint0_linear_1332_26271" x1="11.925" y1="3.889" x2="7.978" y2="18.621" gradientUnits="userSpaceOnUse"><stop stop-color="#BB8551"></stop><stop offset="1" stop-color="#A5673E"></stop></linearGradient><linearGradient id="paint1_linear_1332_26271" x1="8.859" y1="3.182" x2="12.688" y2="19.482" gradientUnits="userSpaceOnUse"><stop stop-color="#E7C78D"></stop><stop offset="1" stop-color="#B17D47"></stop></linearGradient><filter id="filter0_i_1332_26271" x="9.974" y="9.491" width="5.08" height="6.827" filterUnits="userSpaceOnUse" color-interpolation-filters="sRGB"><feFlood flood-opacity="0" result="BackgroundImageFix"></feFlood><feBlend in="SourceGraphic" in2="BackgroundImageFix" result="shape"></feBlend><feColorMatrix in="SourceAlpha" values="0 0 0 0 0 0 0 0 0 0 0 0 0 0 0 0 0 0 127 0" result="hardAlpha"></feColorMatrix><feOffset dy=".146"></feOffset><feGaussianBlur stdDeviation=".073"></feGaussianBlur><feComposite in2="hardAlpha" operator="arithmetic" k2="-1" k3="1"></feComposite><feColorMatrix values="0 0 0 0 0.329167 0 0 0 0 0.205489 0 0 0 0 0.0932639 0 0 0 1 0"></feColorMatrix><feBlend in2="shape" result="effect1_innerShadow_1332_26271"></feBlend></filter></defs></svg>